<svg version="1.1" id="Layer_1" xmlns="http://www.w3.org/2000/svg" xmlns:xlink="http://www.w3.org/1999/xlink" x="0px" y="0px" style="enable-background:new 0 0 1920 1080;" xml:space="preserve" viewBox="83 419.1 1752.43 241.52">
<style type="text/css">
	.st0{fill:#6203FF;}
	.st1{fill:#8A42FF;}
	.st2{fill:#741FFF;}
	.st3{fill:#61D9FF;}
	.st4{fill:url(#SVGID_1_);}
	.st5{fill:url(#SVGID_00000134956658284519563100000015094121371170784669_);}
	.st6{fill:#ED3307;}
	.st7{fill:#FB3B0E;}
	.st8{enable-background:new    ;}
	.st9{fill:#FFDAE6;}
</style>
<g>
	<polygon class="st0" points="1220.6,501.4 1220.6,595.9 1302.5,643.2 1302.5,548.7  "/>
	<path class="st1" d="M1302.5,454.1l-81.9,47.3l81.9,47.3l81.9-47.3L1302.5,454.1z"/>
	<polygon class="st2" points="1384.4,501.4 1302.5,548.7 1302.5,643.2 1384.4,595.9  "/>
</g>
<g>
	<path class="st3" d="M1593.5,458.1c-7.7-7.6-20.2-13.8-35.6-17.6c-36.1-8.1-94.4-4.4-113.5,22c-18.7,25.8,20.6,52.8,76.5,52.8   C1580.7,515.4,1620.2,484.5,1593.5,458.1z"/>
	<g>
		
			<linearGradient id="SVGID_1_" gradientUnits="userSpaceOnUse" x1="1439.5343" y1="513.8221" x2="1601.9152" y2="513.8221" gradientTransform="matrix(1 0 0 -1 0 1082)">
			<stop offset="0.1176" style="stop-color:#18BFF5"/>
			<stop offset="0.6588" style="stop-color:#8AE3FF"/>
			<stop offset="0.9529" style="stop-color:#18BFF5"/>
		</linearGradient>
		<path class="st4" d="M1520.7,660.6c51.4,0.1,82.8-20.4,81.1-40.7V475.8c0,21.8-36.3,39.6-81.1,39.6s-81.1-17.7-81.1-39.6V620    C1438,640.2,1469.3,660.7,1520.7,660.6z"/>
	</g>
</g>
<radialGradient id="SVGID_00000076574262437132606600000006894414271882488490_" cx="1098.1949" cy="556.4835" r="48.7944" gradientTransform="matrix(1 0 0 -1 0 1082)" gradientUnits="userSpaceOnUse">
	<stop offset="0" style="stop-color:#FF87AD"/>
	<stop offset="1" style="stop-color:#FF4A85"/>
</radialGradient>
<path style="fill:url(#SVGID_00000076574262437132606600000006894414271882488490_);" d="M1169.5,547.4  c-0.4-27.3-13.8-52.5-35.9-68.3c-56-39.8-133.6-0.1-134.6,68.3c0,0.8,0,1.7,0,2.5c0.5,34.8,21.8,64.5,52.1,77.3  c55.5,23.4,117.6-16.8,118.4-77.3C1169.5,549.2,1169.5,548.2,1169.5,547.4z"/>
<g>
	<path class="st6" d="M1739,450.6l-96.3,140.4l96.3,55.7C1739,638.3,1739,454.2,1739,450.6z"/>
	<path class="st7" d="M1835.4,591.1c-2.1-3-94.3-137.4-96.3-140.4c0,3.5,0,187.7,0,196.1C1743.1,644.4,1831.5,593.3,1835.4,591.1   L1835.4,591.1z"/>
</g>
<g class="st8">
	<path class="st9" d="M166.7,548.9v42.8c0,23.2-18.7,42-41.1,42c-22.7,0-40.4-18.9-40.4-42v-42.8c0-23.2,18.6-42,40-42   C148.3,506.8,166.7,525.7,166.7,548.9z M156.4,548.9c0-17.4-13.8-31.9-31.1-31.9c-16.3,0-30.1,14.4-30.1,31.9v42.8   c0,17.4,13.2,31.9,30.1,31.9c16.8,0,31.1-14.4,31.1-31.9V548.9z"/>
	<path class="st9" d="M243.2,577.6l26.2,31.1v-102H280v127h-10.6v-6.2l-31.7-37.9l-31.2,37.6v6.2h-10.6V506.7h10.3v101.8l26.5-31.4   V563h10.6V577.6z"/>
	<path class="st9" d="M318.8,513l63.4,70.9v-77.2h10.3v127h-10.3v-31.4l-63.4-70.6v102h-10.6v-127h10.6V513z"/>
	<path class="st9" d="M420.8,557l73.6-43.5v-6.8h10.6v127h-10.6v-56.3h-63v56.3h-10.6V557z M494.4,566.8v-38.9l-65.8,38.9H494.4z"/>
	<path class="st9" d="M535.1,633.7V507h46.6c22.4,0,35.5,16.7,35.5,33.9c0,10.6-5.1,21.6-16,28.7c12.5,6.8,18.2,18.6,18.2,30.1   c0,17.1-12.8,33.9-35.5,33.9H535.1z M581.7,564.7c16-0.2,24.4-12.4,24.4-24.3c0-11.6-7.9-22.8-24.4-22.8h-36v47.1H581.7z    M583.9,623.4c16.2-0.2,24.3-11.6,24.3-23.3c0-11.7-8.1-23.6-24.3-24.6h-38.1v47.9H583.9z"/>
	<path class="st9" d="M654.5,623.1h73.6v10.6h-84.2v-127h10.6V623.1z"/>
	<path class="st9" d="M744.8,557l73.6-43.5v-6.8h10.5v14.9l-76.3,45.2H829v10.8h-73.6v45.5H829v10.6h-84.2V557z"/>
	<path class="st9" d="M935.7,592.3c0,22.2-18.6,41.4-40,41.4c-1,0-1.7,0-44.1,0v-10.5h41.4c15.1,0,31.7-13.8,31.7-27.8   c-23.8-14.1-49.2-25.5-73.1-39.6v-7.5c0-23.2,19.3-41.7,41.4-41.7h42.8v10.5h-42.8c-15.5,0-31.1,13.6-31.1,30.8   c24.1,14.1,49.5,25.5,73.7,39.6V592.3z"/>
</g>
<g>
	<g>
		<g>
			<path class="st9" d="M202.8,435.7h10.6v31.7h17.3v9.1h-28V435.7z M232,435.7h34.9v8.8h-12.2v32h-10.6v-32H232V435.7z      M290.8,435.4c12.7,0,22.1,8.8,22.1,20.7s-9.4,21-22.1,21c-12.7,0-22.1-8.9-22.1-21C268.8,444.2,278.2,435.4,290.8,435.4z      M290.9,444.5c-6.1,0-11.3,5-11.3,11.6s5.2,11.8,11.3,11.8c6.1,0,11-5.2,11-11.8C301.9,449.5,297,444.5,290.9,444.5z      M335.7,435.7h9.3l18.5,24.6v-24.6h9.8v40.8H364L345.5,452v24.5h-10v-40.8H335.7z M381.4,435.7h32.2v8.5h-21.5v7.6h19.4v8.4     h-19.4v7.8h22.1v8.5h-32.7v-40.9H381.4z M417.1,435.7H452v8.8h-12.2v32h-10.6v-32h-12.2V435.7z M452.4,435.7h11.5l7.8,29.5     l7.6-29.5h10.5l7.8,29.5l7.6-29.5h11l-13.5,40.8h-11l-7.4-27.6l-7.5,27.6h-11L452.4,435.7z M539.1,435.4     c12.7,0,22.1,8.8,22.1,20.7s-9.4,21-22.1,21c-12.7,0-22.1-8.9-22.1-21C517,444.2,526.5,435.4,539.1,435.4z M539.1,444.5     c-6.1,0-11.3,5-11.3,11.6s5.2,11.8,11.3,11.8s11-5.2,11-11.8C550.1,449.5,545.3,444.5,539.1,444.5z M603.1,476.6h-12.2l-6-11.3     h-7.9v11.3h-10.6v-40.9h18.4c10.9,0,17,5.2,17,14.4c0,6.2-2.6,10.7-7.2,13.2L603.1,476.6z M577.1,444.2v12.6h7.8     c4.3,0,6.9-2.2,6.9-6.3c0-4-2.5-6.2-6.9-6.2C584.8,444.2,577.1,444.2,577.1,444.2z M647.9,476.6H635l-10.5-15.8l-5.2,5.8v10     h-10.6v-40.9h10.6v17.1l15.1-17.1h12.3l-15.1,16.8L647.9,476.6z"/>
		</g>
		<polygon class="st9" points="175.1,465.2 129,419.1 83,465.2 101.3,483.6 129,455.9 156.7,483.6   "/>
	</g>
</g>
</svg>